# xmcd
#
# Track frame offsets:
#	150
#	15817
#	27824
#	42550
#	66689
#	112104
#	147806
#	167195
#	194402
#	220526
#	239819
#	262390
#	291684
#
# Disc length: 4472 seconds
#
# Revision: 0
# Processed by: cddbd v1.5.2PL0 Copyright (c) Steve Scherf et al.
# Submitted via: EasyCDDAExtractor 2010.3.0.0
#
DISCID=d511760d
DTITLE=Roomful Of Blues - Montreux Jazz Festival 1987
DYEAR=1987
DGENRE=Blues
TTITLE0=Intro Okie Dokie Stomp
TTITLE1=Reelin' and Rockin'
TTITLE2=Yes, Indeed!
TTITLE3=He Knows the Rules
TTITLE4=Three Hours Past Midnight
TTITLE5=Caravan (featuring Porky Cohen)
TTITLE6=Dressed Ip to get Messed Up
TTITLE7=Real Gone Lover
TTITLE8=Every Day I Have the Blues
TTITLE9=Those Lonely, Lonely Nights
TTITLE10=The Things That I Used to Do
TTITLE11=It All Went Down the Drain
TTITLE12=Let the Good Times Roll
EXTD=
EXTT0=
EXTT1=
EXTT2=
EXTT3=
EXTT4=
EXTT5=
EXTT6=
EXTT7=
EXTT8=
EXTT9=
EXTT10=
EXTT11=
EXTT12=
PLAYORDER=
